<svg width="59" height="59" viewBox="0 0 59 59" fill="none" xmlns="http://www.w3.org/2000/svg">
<path d="M29.1667 0C23.3981 0 17.759 1.7106 12.9625 4.91547C8.16611 8.12035 4.42775 12.6756 2.22019 18.0051C0.0126375 23.3346 -0.56496 29.199 0.560442 34.8568C1.68584 40.5146 4.4637 45.7116 8.54273 49.7906C12.6218 53.8697 17.8188 56.6475 23.4765 57.7729C29.1343 58.8983 34.9988 58.3207 40.3283 56.1132C45.6578 53.9056 50.213 50.1672 53.4179 45.3708C56.6227 40.5744 58.3333 34.9353 58.3333 29.1667C58.3333 25.3364 57.5789 21.5437 56.1132 18.0051C54.6474 14.4664 52.499 11.2511 49.7906 8.54272C47.0822 5.83434 43.8669 3.68594 40.3283 2.22018C36.7896 0.754418 32.9969 0 29.1667 0ZM29.1667 52.5C24.5518 52.5 20.0405 51.1315 16.2034 48.5676C12.3662 46.0037 9.37554 42.3596 7.60949 38.096C5.84345 33.8323 5.38137 29.1408 6.28169 24.6146C7.18201 20.0883 9.4043 15.9307 12.6675 12.6675C15.9307 9.40428 20.0883 7.182 24.6146 6.28168C29.1408 5.38136 33.8323 5.84343 38.096 7.60948C42.3596 9.37552 46.0037 12.3662 48.5676 16.2034C51.1315 20.0405 52.5 24.5518 52.5 29.1667C52.5 35.3551 50.0417 41.29 45.6658 45.6658C41.29 50.0417 35.3551 52.5 29.1667 52.5Z" fill="#AA4465"/>
<path d="M37.9167 26.25H20.4167C19.6431 26.25 18.9013 26.5573 18.3543 27.1043C17.8073 27.6513 17.5 28.3931 17.5 29.1667C17.5 29.9402 17.8073 30.6821 18.3543 31.2291C18.9013 31.776 19.6431 32.0833 20.4167 32.0833H37.9167C38.6902 32.0833 39.4321 31.776 39.9791 31.2291C40.526 30.6821 40.8333 29.9402 40.8333 29.1667C40.8333 28.3931 40.526 27.6513 39.9791 27.1043C39.4321 26.5573 38.6902 26.25 37.9167 26.25Z" fill="#AA4465"/>
</svg>
