<svg width="116" height="42" viewBox="0 0 116 42" fill="none" xmlns="http://www.w3.org/2000/svg">
<rect width="116" height="42" rx="10" fill="#AA4465"/>
<rect x="0.5" y="0.5" width="115" height="41" rx="9.5" stroke="#AA4465" stroke-opacity="0.7"/>
<path d="M30.6211 26.3379H24.2002L22.9795 30H19.0854L25.7017 12.2266H29.0952L35.748 30H31.854L30.6211 26.3379ZM25.189 23.3716H29.6323L27.3984 16.7188L25.189 23.3716ZM40.8994 30H37.3594V11.25H40.8994V30ZM48.0405 13.5449V16.792H50.2988V19.3799H48.0405V25.9717C48.0405 26.46 48.1341 26.8099 48.3213 27.0215C48.5085 27.2331 48.8665 27.3389 49.3955 27.3389C49.7861 27.3389 50.132 27.3104 50.4331 27.2534V29.9268C49.7414 30.1383 49.0293 30.2441 48.2969 30.2441C45.8229 30.2441 44.5615 28.995 44.5127 26.4966V19.3799H42.584V16.792H44.5127V13.5449H48.0405ZM58.3433 30.2441C56.4064 30.2441 54.8276 29.6501 53.6069 28.4619C52.3944 27.2738 51.7881 25.6909 51.7881 23.7134V23.3716C51.7881 22.0451 52.0444 20.861 52.5571 19.8193C53.0698 18.7695 53.7941 17.9639 54.73 17.4023C55.674 16.8327 56.7482 16.5479 57.9526 16.5479C59.7593 16.5479 61.1794 17.1175 62.2129 18.2568C63.2546 19.3962 63.7754 21.0116 63.7754 23.103V24.5435H55.3647C55.4787 25.4061 55.8205 26.0978 56.3901 26.6187C56.9679 27.1395 57.6963 27.3999 58.5752 27.3999C59.9342 27.3999 60.9963 26.9076 61.7612 25.9229L63.4946 27.8638C62.9657 28.6125 62.2495 29.1984 61.3462 29.6216C60.4429 30.0366 59.4419 30.2441 58.3433 30.2441ZM57.9404 19.4043C57.2406 19.4043 56.6709 19.6403 56.2314 20.1123C55.8001 20.5843 55.5234 21.2598 55.4014 22.1387H60.3086V21.8579C60.2923 21.0767 60.0807 20.4744 59.6738 20.0513C59.2669 19.62 58.6891 19.4043 57.9404 19.4043ZM73.2114 20.1001C72.7313 20.035 72.3081 20.0024 71.9419 20.0024C70.6073 20.0024 69.7324 20.4541 69.3174 21.3574V30H65.7896V16.792H69.1221L69.2197 18.3667C69.9277 17.1541 70.9084 16.5479 72.1616 16.5479C72.5522 16.5479 72.9185 16.6007 73.2603 16.7065L73.2114 20.1001ZM82.208 30C82.0452 29.6826 81.9272 29.2879 81.854 28.8159C80.9995 29.7681 79.8887 30.2441 78.5215 30.2441C77.2275 30.2441 76.1533 29.8698 75.2988 29.1211C74.4525 28.3724 74.0293 27.4284 74.0293 26.2891C74.0293 24.8893 74.5461 23.8151 75.5796 23.0664C76.6213 22.3177 78.1227 21.9393 80.084 21.9312H81.7075V21.1743C81.7075 20.564 81.5488 20.0757 81.2314 19.7095C80.9222 19.3433 80.4299 19.1602 79.7544 19.1602C79.1603 19.1602 78.6924 19.3026 78.3506 19.5874C78.0169 19.8722 77.8501 20.2629 77.8501 20.7593H74.3223C74.3223 19.9943 74.5583 19.2863 75.0303 18.6353C75.5023 17.9842 76.1696 17.4756 77.0322 17.1094C77.8949 16.735 78.8633 16.5479 79.9375 16.5479C81.5651 16.5479 82.855 16.9588 83.8071 17.7808C84.7674 18.5946 85.2476 19.742 85.2476 21.2231V26.9482C85.2557 28.2015 85.4307 29.1496 85.7725 29.7925V30H82.208ZM79.2905 27.5464C79.8114 27.5464 80.2915 27.4325 80.731 27.2046C81.1704 26.9686 81.4959 26.6553 81.7075 26.2646V23.9941H80.3892C78.6232 23.9941 77.6833 24.6045 77.5693 25.8252L77.5571 26.0327C77.5571 26.4722 77.7118 26.8343 78.021 27.1191C78.3302 27.404 78.7534 27.5464 79.2905 27.5464ZM95.3794 20.1001C94.8993 20.035 94.4761 20.0024 94.1099 20.0024C92.7752 20.0024 91.9004 20.4541 91.4854 21.3574V30H87.9575V16.792H91.29L91.3877 18.3667C92.0957 17.1541 93.0763 16.5479 94.3296 16.5479C94.7202 16.5479 95.0864 16.6007 95.4282 16.7065L95.3794 20.1001Z" fill="#F7FFFF"/>
</svg>
