<svg width="59" height="59" viewBox="0 0 59 59" fill="none" xmlns="http://www.w3.org/2000/svg">
<path d="M13.2403 5.3312C17.9545 2.18127 23.4969 0.5 29.1667 0.5C32.9312 0.5 36.6589 1.24149 40.1369 2.68212C43.6149 4.12276 46.7751 6.23433 49.4371 8.89627C52.099 11.5582 54.2106 14.7184 55.6512 18.1964C57.0919 21.6744 57.8333 25.4021 57.8333 29.1667C57.8333 34.8364 56.1521 40.3788 53.0021 45.093C49.8522 49.8072 45.3751 53.4815 40.1369 55.6512C34.8988 57.8209 29.1349 58.3886 23.5741 57.2825C18.0133 56.1764 12.9054 53.4462 8.89629 49.4371C4.88718 45.428 2.15694 40.32 1.05084 34.7593C-0.0552745 29.1985 0.512421 23.4346 2.68213 18.1964C4.85185 12.9583 8.52612 8.48114 13.2403 5.3312ZM15.9256 48.9834C19.845 51.6022 24.4529 53 29.1667 53C35.4877 53 41.5498 50.489 46.0194 46.0194C50.489 41.5498 53 35.4877 53 29.1667C53 24.4529 51.6022 19.8449 48.9834 15.9256C46.3645 12.0062 42.6423 8.95143 38.2873 7.14754C33.9323 5.34365 29.1402 4.87167 24.517 5.79129C19.8938 6.7109 15.6471 8.9808 12.314 12.314C8.98082 15.6471 6.71091 19.8938 5.7913 24.517C4.87168 29.1402 5.34366 33.9323 7.14755 38.2873C8.95144 42.6423 12.0062 46.3645 15.9256 48.9834Z" stroke="#AA4465"/>
<path d="M31.5833 26.25V26.75H32.0833H37.9167C38.5576 26.75 39.1723 27.0046 39.6255 27.4578C40.0787 27.911 40.3333 28.5257 40.3333 29.1667C40.3333 29.8076 40.0787 30.4223 39.6255 30.8755C39.1723 31.3287 38.5576 31.5833 37.9167 31.5833H32.0833H31.5833V32.0833V37.9167C31.5833 38.5576 31.3287 39.1723 30.8755 39.6255C30.4223 40.0787 29.8076 40.3333 29.1667 40.3333C28.5257 40.3333 27.911 40.0787 27.4578 39.6255C27.0046 39.1723 26.75 38.5576 26.75 37.9167V32.0833V31.5833H26.25H20.4167C19.7757 31.5833 19.161 31.3287 18.7078 30.8755C18.2546 30.4223 18 29.8076 18 29.1667C18 28.5257 18.2546 27.911 18.7078 27.4578C19.161 27.0046 19.7757 26.75 20.4167 26.75H26.25H26.75V26.25V20.4167C26.75 19.7757 27.0046 19.161 27.4578 18.7078C27.911 18.2546 28.5257 18 29.1667 18C29.8076 18 30.4223 18.2546 30.8755 18.7078C31.3287 19.161 31.5833 19.7757 31.5833 20.4167V26.25Z" stroke="#AA4465"/>
</svg>
